<svg enable-background="new 0 0 128 128" viewBox="0 0 128 128" xmlns="http://www.w3.org/2000/svg" xmlns:xlink="http://www.w3.org/1999/xlink"><linearGradient id="a" gradientTransform="matrix(1 0 0 -1 0 127.8898)" gradientUnits="userSpaceOnUse" x1="89.6236" x2="72.3214" y1="125.0426" y2="94.0659"><stop offset=".1355" stop-color="#1e88e5"/><stop offset=".938" stop-color="#1565c0"/></linearGradient><linearGradient id="b" gradientTransform="matrix(1 0 0 -1 0 127.8898)" gradientUnits="userSpaceOnUse" x1="40.4285" x2="62.475" y1="122.7211" y2="81.5583"><stop offset=".1355" stop-color="#64b5f6"/><stop offset=".9462" stop-color="#2196f3"/></linearGradient><radialGradient id="c" cx="43" cy="63.2499" gradientUnits="userSpaceOnUse" r="69.492"><stop offset=".2835" stop-color="#eee"/><stop offset="1" stop-color="#bdbdbd"/></radialGradient><path d="m106 4-13 20.9-13.1 21.3h-31.5l.1-.2 12.5-20.1 13.6-21.9z" fill="url(#a)"/><path d="m102.4 4-24.2 39h-24.4l24.4-39h-3.5l-13.7 21.9-12.6 20.1h31.4l13.2-21.1 13.1-20.9z" fill="#424242" opacity=".2"/><path d="m82 34h-36c-4.4 0-8 3.6-8 8v16c0 2.2 1.8 4 4 4 2.2 0 5-1.8 5-4v-10c0-1.1.9-2 2-2h30c1.1 0 2 .9 2 2v9.9c0 2 2.3 3.7 4.2 4 .3 0 .5.1.8.1 2.2 0 4-1.8 4-4v-16c0-4.4-3.6-8-8-8z" fill="#bdbdbd"/><path d="m82 36c3.3 0 6 2.7 6 6v16c0 1.1-.9 2-2 2-.1 0-.3 0-.4 0-1.2-.2-2.6-1.3-2.6-2.1v-9.9c0-2.2-1.8-4-4-4h-30c-2.2 0-4 1.8-4 4v10c0 .9-1.6 2-3 2-1.1 0-2-.9-2-2v-16c0-3.3 2.7-6 6-6zm0-2h-36c-4.4 0-8 3.6-8 8v16c0 2.2 1.8 4 4 4 2.2 0 5-1.8 5-4v-10c0-1.1.9-2 2-2h30c1.1 0 2 .9 2 2v9.9c0 2 2.3 3.7 4.2 4 .3 0 .5.1.8.1 2.2 0 4-1.8 4-4v-16c0-4.4-3.6-8-8-8z" fill="#424242" opacity=".2"/><path d="m79.9 46.2h-31.5l-12.5-20.3-13.6-21.9h31.5l14.2 23 11.8 19z" fill="url(#b)"/><path d="m68 27-14.4-23h-3.6l24.5 39h-24.4l-24.4-39h-3.5l13.7 21.9 12.5 20.1h31.4z" fill="#424242" opacity=".2"/><circle cx="64" cy="86" fill="url(#c)" r="38"/><path d="m64 51c19.3 0 35 15.7 35 35s-15.7 35-35 35-35-15.7-35-35 15.7-35 35-35m0-3c-21 0-38 17-38 38s17 38 38 38 38-17 38-38-17-38-38-38z" fill="#424242" opacity=".2"/><path d="m47.3 63.6h33.4v44.4h-33.4z" fill="none"/><path d="m50.6 78.1s-.1-13.2 14.1-13.2 12.8 12.3 12.8 12.3c.1 7.4-10.7 15.8-15.7 21.8h17.2v6.6h-27.5v-5.6c4.5-5 18-17.7 18-21.8 0 0 1.1-6.8-5-6.8s-5.8 6.7-5.8 6.7z" fill="#757575"/></svg>