<svg enable-background="new 0 0 128 128" viewBox="0 0 128 128" xmlns="http://www.w3.org/2000/svg" xmlns:xlink="http://www.w3.org/1999/xlink"><linearGradient id="a" gradientTransform="matrix(1 0 0 -1 0 127.8898)" gradientUnits="userSpaceOnUse" x1="93.2484" x2="69.9461" y1="125.0151" y2="92.6431"><stop offset=".1355" stop-color="#1e88e5"/><stop offset=".938" stop-color="#1565c0"/></linearGradient><radialGradient id="b" cx="47.5533" cy="67.0359" gradientUnits="userSpaceOnUse" r="73.814"><stop offset=".2668" stop-color="#ffa726"/><stop offset="1" stop-color="#fb8c00"/></radialGradient><linearGradient id="c" gradientTransform="matrix(1 0 0 -1 0 127.8898)" gradientUnits="userSpaceOnUse" x1="41.782" x2="60.4796" y1="122.8165" y2="82.6305"><stop offset=".1355" stop-color="#64b5f6"/><stop offset=".9462" stop-color="#2196f3"/></linearGradient><path d="m106 4-13 20.9-13.1 21.3h-31.5l.1-.2 12.5-20.1 13.6-21.9z" fill="url(#a)"/><path d="m102.4 4-24.2 39h-24.4l24.4-39h-3.5l-13.7 21.9-12.6 20.1h31.4l13.2-21.1 13.1-20.9z" fill="#424242" opacity=".2"/><path d="m82 34h-36c-4.4 0-8 3.6-8 8v16c0 2.2 1.8 4 4 4 2.2 0 5-1.8 5-4v-10c0-1.1.9-2 2-2h30c1.1 0 2 .9 2 2v9.9c0 2 2.3 3.7 4.2 4 .3 0 .5.1.8.1 2.2 0 4-1.8 4-4v-16c0-4.4-3.6-8-8-8z" fill="#ff9800"/><path d="m82 36c3.3 0 6 2.7 6 6v16c0 1.1-.9 2-2 2-.1 0-.3 0-.4 0-1.2-.2-2.6-1.3-2.6-2.1v-9.9c0-2.2-1.8-4-4-4h-30c-2.2 0-4 1.8-4 4v10c0 .9-1.6 2-3 2-1.1 0-2-.9-2-2v-16c0-3.3 2.7-6 6-6zm0-2h-36c-4.4 0-8 3.6-8 8v16c0 2.2 1.8 4 4 4 2.2 0 5-1.8 5-4v-10c0-1.1.9-2 2-2h30c1.1 0 2 .9 2 2v9.9c0 2 2.3 3.7 4.2 4 .3 0 .5.1.8.1 2.2 0 4-1.8 4-4v-16c0-4.4-3.6-8-8-8z" fill="#424242" opacity=".2"/><circle cx="64.1" cy="86" fill="url(#b)" r="38"/><path d="m78.3 95.2c0-8.3-7-9.9-7-9.9s6.3-2.6 6.3-9.4c0 0 .7-11.9-14.2-11.9-9.6 0-14.1 5.9-14.1 11.5h8.4s0-4.7 5.9-4.7c5.8 0 5.6 5.5 5.6 5.5s.3 5.9-5.8 5.9h-5.1v3.2 3.4h5.2c6.3 0 6.3 5.9 6.3 5.9s.7 6.2-6.1 6.2c-6.4 0-6.5-5.2-6.5-5.2h-8.4c0 6.3 4.7 12.1 14.7 12.1 15.2-.1 14.8-12 14.8-12.6z" fill="#d84315"/><path d="m79.9 46.2h-31.5l-26.1-42.2h31.5z" fill="url(#c)"/><g fill="#424242"><path d="m53.6 4h-3.6l24.5 39h-24.4l-24.4-39h-3.5l26.2 42h31.4z" opacity=".2"/><path d="m64 51c19.3 0 35 15.7 35 35s-15.7 35-35 35-35-15.7-35-35 15.7-35 35-35m0-3c-21 0-38 17-38 38s17 38 38 38 38-17 38-38-17-38-38-38z" opacity=".2"/></g></svg>